<?xml version="1.0" encoding="UTF-8" standalone="no"?>
<!-- Created with Inkscape (http://www.inkscape.org/) -->

<svg
   width="60mm"
   height="60mm"
   viewBox="0 0 60 60"
   version="1.1"
   id="svg1"
   inkscape:version="1.4.2 (ebf0e940, 2025-05-08)"
   sodipodi:docname="favicon.svg"
   xmlns:inkscape="http://www.inkscape.org/namespaces/inkscape"
   xmlns:sodipodi="http://sodipodi.sourceforge.net/DTD/sodipodi-0.dtd"
   xmlns="http://www.w3.org/2000/svg"
   xmlns:svg="http://www.w3.org/2000/svg">
  <sodipodi:namedview
     id="namedview1"
     pagecolor="#ffffff"
     bordercolor="#000000"
     borderopacity="0.25"
     inkscape:showpageshadow="2"
     inkscape:pageopacity="0.0"
     inkscape:pagecheckerboard="0"
     inkscape:deskcolor="#d1d1d1"
     inkscape:document-units="mm"
     inkscape:zoom="1"
     inkscape:cx="49"
     inkscape:cy="111"
     inkscape:window-width="1344"
     inkscape:window-height="717"
     inkscape:window-x="0"
     inkscape:window-y="34"
     inkscape:window-maximized="0"
     inkscape:current-layer="layer1" />
  <defs
     id="defs1">
    <rect
       x="255"
       y="496"
       width="309"
       height="181"
       id="rect1" />
  </defs>
  <g
     inkscape:label="Layer 1"
     inkscape:groupmode="layer"
     id="layer1"
     transform="translate(-80.433334,-127.52917)">
    <rect
       style="fill:#000000;stroke-width:0.427302;paint-order:fill markers stroke"
       id="rect2"
       width="60"
       height="60"
       x="80.433334"
       y="127.52917" />
    <path
       id="path3"
       style="fill:#ffffff;stroke-width:0.427302;paint-order:fill markers stroke"
       d="m 110.29249,134.98711 c -0.29931,0.007 -0.2341,0.56637 0.30334,1.80247 5.29167,12.17084 -24.07708,43.12709 -24.07708,43.12709 0,0 26.45833,-1.32292 42.8625,-1.5875 14.73811,-0.23772 -16.44103,-43.40301 -19.08876,-43.34206 z M 115.16661,152.4 c 0.12552,0.003 0.0983,0.27621 -0.12712,0.87902 -2.21919,5.93533 10.09705,21.03179 10.09705,21.03179 0,0 -11.09564,-0.64509 -17.97513,-0.77412 -6.18078,-0.11592 6.89481,-21.16642 8.0052,-21.13669 z" />
  </g>
</svg>
